HIERARCHY
ROOT hip
{
  OFFSET 5.51535 103.731 -2.80141
  CHANNELS 6 Xposition Yposition Zposition Zrotation Xrotation Yrotation
  JOINT abdomen
  {
    OFFSET 0 -1.186 -1.5018
    CHANNELS 6 Xposition Yposition Zposition Zrotation Xrotation Yrotation
    JOINT abdomen2
    {
      OFFSET 0 9.964 0.2134
      CHANNELS 6 Xposition Yposition Zposition Zrotation Xrotation Yrotation
      JOINT chest
      {
        OFFSET 0 13.134 -3.2573
        CHANNELS 6 Xposition Yposition Zposition Zrotation Xrotation Yrotation
        JOINT neck
        {
          OFFSET 0 20.686 -1.6905
          CHANNELS 6 Xposition Yposition Zposition Zrotation Xrotation Yrotation
          JOINT head
          {
            OFFSET 0 7.23801 -0.1237
            CHANNELS 6 Xposition Yposition Zposition Zrotation Xrotation Yrotation
            End Site
            {
              OFFSET 0 0 0
            }
          }
        }
        JOINT lCollar
        {
          OFFSET 1.7069 20.075 5.0056
          CHANNELS 6 Xposition Yposition Zposition Zrotation Xrotation Yrotation
          JOINT lShldr
          {
            OFFSET 13.6458 -0.0470195 -4.849
            CHANNELS 6 Xposition Yposition Zposition Zrotation Xrotation Yrotation
            JOINT lForeArm
            {
              OFFSET 28.3255 -0.97589 2.2888
              CHANNELS 6 Xposition Yposition Zposition Zrotation Xrotation Yrotation
              JOINT lHand
              {
                OFFSET 22.1583 -0.529998 10.8316
                CHANNELS 6 Xposition Yposition Zposition Zrotation Xrotation Yrotation
                JOINT lThumb1
                {
                  OFFSET 0.786 0.111997 2.5817
                  CHANNELS 6 Xposition Yposition Zposition Zrotation Xrotation Yrotation
                  JOINT lThumb2
                  {
                    OFFSET 0.360097 -0.877999 4.2331
                    CHANNELS 6 Xposition Yposition Zposition Zrotation Xrotation Yrotation
                    JOINT lThumb2_End
                    {
                      OFFSET 1.8127 -1.21601 2.2227
                      CHANNELS 6 Xposition Yposition Zposition Zrotation Xrotation Yrotation
                      End Site
                      {
                        OFFSET 0.0180981 -0.012195 0.0222007
                      }
                    }
                  }
                }
                JOINT lCarpal1
                {
                  OFFSET 0.9571 1.114 1.7695
                  CHANNELS 6 Xposition Yposition Zposition Zrotation Xrotation Yrotation
                  JOINT lIndex1
                  {
                    OFFSET 4.12461 0.486992 4.1451
                    CHANNELS 6 Xposition Yposition Zposition Zrotation Xrotation Yrotation
                    JOINT lIndex2
                    {
                      OFFSET 3.4052 -1.45401 2.7682
                      CHANNELS 6 Xposition Yposition Zposition Zrotation Xrotation Yrotation
                      JOINT lIndex2_End
                      {
                        OFFSET 1.45309 -1.79499 1.2713
                        CHANNELS 6 Xposition Yposition Zposition Zrotation Xrotation Yrotation
                        End Site
                        {
                          OFFSET 0.0144979 -0.0179083 0.0126995
                        }
                      }
                    }
                  }
                  JOINT lMid1
                  {
                    OFFSET 5.6954 0.209987 2.1184
                    CHANNELS 6 Xposition Yposition Zposition Zrotation Xrotation Yrotation
                    JOINT lMid2
                    {
                      OFFSET 3.9766 -1.53999 2.3863
                      CHANNELS 6 Xposition Yposition Zposition Zrotation Xrotation Yrotation
                      JOINT lMid2_End
                      {
                        OFFSET 1.4042 -1.926 1.125
                        CHANNELS 6 Xposition Yposition Zposition Zrotation Xrotation Yrotation
                        End Site
                        {
                          OFFSET 0.013999 -0.0193044 0.011301
                        }
                      }
                    }
                  }
                }
                JOINT lCarpal2
                {
                  OFFSET 2.0956 0.66 -0.3894
                  CHANNELS 6 Xposition Yposition Zposition Zrotation Xrotation Yrotation
                  JOINT lRing1
                  {
                    OFFSET 5.0395 -0.090013 2.4971
                    CHANNELS 6 Xposition Yposition Zposition Zrotation Xrotation Yrotation
                    JOINT lRing2
                    {
                      OFFSET 3.7921 -1.55199 1.4806
                      CHANNELS 6 Xposition Yposition Zposition Zrotation Xrotation Yrotation
                      JOINT lRing2_End
                      {
                        OFFSET 1.4655 -1.808 0.9609
                        CHANNELS 6 Xposition Yposition Zposition Zrotation Xrotation Yrotation
                        End Site
                        {
                          OFFSET 0.0147015 -0.0181014 0.00959957
                        }
                      }
                    }
                  }
                  JOINT lPinky1
                  {
                    OFFSET 4.9141 -1.269 0.3591
                    CHANNELS 6 Xposition Yposition Zposition Zrotation Xrotation Yrotation
                    JOINT lPinky2
                    {
                      OFFSET 3.1477 -1.685 0.8462
                      CHANNELS 6 Xposition Yposition Zposition Zrotation Xrotation Yrotation
                      JOINT lPinky2_End
                      {
                        OFFSET 0.805498 -1.58501 0.795499
                        CHANNELS 6 Xposition Yposition Zposition Zrotation Xrotation Yrotation
                        End Site
                        {
                          OFFSET 0.00809703 -0.0157944 0.00799848
                        }
                      }
                    }
                  }
                }
              }
            }
          }
        }
        JOINT rCollar
        {
          OFFSET -1.7069 20.075 5.0056
          CHANNELS 6 Xposition Yposition Zposition Zrotation Xrotation Yrotation
          JOINT rShldr
          {
            OFFSET -13.6458 -0.0470107 -4.849
            CHANNELS 6 Xposition Yposition Zposition Zrotation Xrotation Yrotation
            JOINT rForeArm
            {
              OFFSET -28.3255 -0.975895 2.2888
              CHANNELS 6 Xposition Yposition Zposition Zrotation Xrotation Yrotation
              JOINT rHand
              {
                OFFSET -22.1583 -0.530007 10.8316
                CHANNELS 6 Xposition Yposition Zposition Zrotation Xrotation Yrotation
                JOINT rThumb1
                {
                  OFFSET -0.785997 0.112005 2.5817
                  CHANNELS 6 Xposition Yposition Zposition Zrotation Xrotation Yrotation
                  JOINT rThumb2
                  {
                    OFFSET -0.360106 -0.877994 4.2331
                    CHANNELS 6 Xposition Yposition Zposition Zrotation Xrotation Yrotation
                    JOINT rThumb2_End
                    {
                      OFFSET -1.8127 -1.216 2.2227
                      CHANNELS 6 Xposition Yposition Zposition Zrotation Xrotation Yrotation
                      End Site
                      {
                        OFFSET -0.0180972 -0.0121973 0.0222005
                      }
                    }
                  }
                }
                JOINT rCarpal1
                {
                  OFFSET -0.9571 1.114 1.7695
                  CHANNELS 6 Xposition Yposition Zposition Zrotation Xrotation Yrotation
                  JOINT rIndex1
                  {
                    OFFSET -4.1246 0.487011 4.1451
                    CHANNELS 6 Xposition Yposition Zposition Zrotation Xrotation Yrotation
                    JOINT rIndex2
                    {
                      OFFSET -3.4052 -1.45401 2.7682
                      CHANNELS 6 Xposition Yposition Zposition Zrotation Xrotation Yrotation
                      JOINT rIndex2_End
                      {
                        OFFSET -1.4531 -1.795 1.2713
                        CHANNELS 6 Xposition Yposition Zposition Zrotation Xrotation Yrotation
                        End Site
                        {
                          OFFSET -0.0145077 -0.0180048 0.0127017
                        }
                      }
                    }
                  }
                  JOINT rMid1
                  {
                    OFFSET -5.6954 0.210002 2.1184
                    CHANNELS 6 Xposition Yposition Zposition Zrotation Xrotation Yrotation
                    JOINT rMid2
                    {
                      OFFSET -3.9766 -1.54 2.3863
                      CHANNELS 6 Xposition Yposition Zposition Zrotation Xrotation Yrotation
                      JOINT rMid2_End
                      {
                        OFFSET -1.4042 -1.926 1.125
                        CHANNELS 6 Xposition Yposition Zposition Zrotation Xrotation Yrotation
                        End Site
                        {
                          OFFSET -0.0139948 -0.0192916 0.0112994
                        }
                      }
                    }
                  }
                }
                JOINT rCarpal2
                {
                  OFFSET -2.0956 0.66 -0.3894
                  CHANNELS 6 Xposition Yposition Zposition Zrotation Xrotation Yrotation
                  JOINT rRing1
                  {
                    OFFSET -5.03951 -0.0899879 2.4971
                    CHANNELS 6 Xposition Yposition Zposition Zrotation Xrotation Yrotation
                    JOINT rRing2
                    {
                      OFFSET -3.7921 -1.55201 1.4806
                      CHANNELS 6 Xposition Yposition Zposition Zrotation Xrotation Yrotation
                      JOINT rRing2_End
                      {
                        OFFSET -1.4655 -1.808 0.960901
                        CHANNELS 6 Xposition Yposition Zposition Zrotation Xrotation Yrotation
                        End Site
                        {
                          OFFSET -0.0146934 -0.0180999 0.00959832
                        }
                      }
                    }
                  }
                  JOINT rPinky1
                  {
                    OFFSET -4.91411 -1.26899 0.359202
                    CHANNELS 6 Xposition Yposition Zposition Zrotation Xrotation Yrotation
                    JOINT rPinky2
                    {
                      OFFSET -3.14769 -1.68501 0.846199
                      CHANNELS 6 Xposition Yposition Zposition Zrotation Xrotation Yrotation
                      JOINT rPinky2_End
                      {
                        OFFSET -0.805498 -1.585 0.7955
                        CHANNELS 6 Xposition Yposition Zposition Zrotation Xrotation Yrotation
                        End Site
                        {
                          OFFSET -0.00810035 -0.0158035 0.00800029
                        }
                      }
                    }
                  }
                }
              }
            }
          }
        }
      }
    }
  }
  JOINT lThigh
  {
    OFFSET 8.367 -8.2066 0.5982
    CHANNELS 6 Xposition Yposition Zposition Zrotation Xrotation Yrotation
    JOINT lShin
    {
      OFFSET 2.1923 -43.463 -0.4932
      CHANNELS 6 Xposition Yposition Zposition Zrotation Xrotation Yrotation
      JOINT lFoot
      {
        OFFSET 0.733301 -45.8593 -2.6451
        CHANNELS 6 Xposition Yposition Zposition Zrotation Xrotation Yrotation
        End Site
        {
          OFFSET 2.6618 -4.2699 12.3931
        }
      }
    }
  }
  JOINT rThigh
  {
    OFFSET -8.367 -8.2066 0.5982
    CHANNELS 6 Xposition Yposition Zposition Zrotation Xrotation Yrotation
    JOINT rShin
    {
      OFFSET -2.1923 -43.463 -0.4931
      CHANNELS 6 Xposition Yposition Zposition Zrotation Xrotation Yrotation
      JOINT rFoot
      {
        OFFSET -0.733299 -45.8593 -2.6451
        CHANNELS 6 Xposition Yposition Zposition Zrotation Xrotation Yrotation
        End Site
        {
          OFFSET -2.6618 -4.2699 12.3931
        }
      }
    }
  }
}
MOTION
Frames:	4
Frame Time:	0.0333333
-41.9669 100.054 -52.8319 -0.635287 6.14509 101.884 -2.99305e-007 -1.18599 -1.5018 -0.000417627 -2.15287 1.02171 1.01721e-006 9.964 0.213402 0.0376415 -4.30542 2.04549 4.41418e-007 13.134 -3.2573 0.0376452 -4.30542 2.04553 2.18813e-006 20.686 -1.6905 -0.570568 13.6137 -8.57511 1.87256e-006 7.238 -0.123702 -6.33082 -1.10015 -8.80721 1.7069 20.075 5.0056 0.496442 0.856021 8.23864 13.6458 -0.0470132 -4.849 -74.2297 -0.445621 34.0689 28.3255 -0.975908 2.28881 -1.61902 8.31151 -8.63795 22.1583 -0.529999 10.8316 -26.7084 -34.8359 -2.27114 0.786006 0.111992 2.5817 0.000356511 0.000293208 2.64322e-005 0.360098 -0.877999 4.2331 -0.000261936 -0.000206058 6.32472e-006 1.8127 -1.21601 2.2227 -0.000176593 5.58109e-005 1.36786e-005 0.9571 1.114 1.7695 7.95139e-016 3.18055e-015 -1.59028e-015 4.12461 0.486995 4.1451 -9.6749e-005 -0.000101359 0.00018798 3.4052 -1.45401 2.7682 0.000370803 0.00011217 8.39327e-006 1.4531 -1.79499 1.2713 -0.000171636 3.90798e-005 2.37736e-005 5.6954 0.209988 2.1184 2.01425 -1.01025 -0.822493 3.9766 -1.53999 2.3863 2.01524 -1.01085 -0.822897 1.4042 -1.926 1.125 2.0153 -1.01095 -0.823225 2.0956 0.66 -0.3894 7.95139e-016 3.18055e-015 -1.59028e-015 5.03951 -0.0900151 2.4971 1.83514 -3.86238 -5.61255 3.7921 -1.55199 1.4806 4.41724 -2.45616 -2.02478 1.4655 -1.808 0.960897 4.4175 -2.45619 -2.02483 4.9141 -1.26901 0.359104 10.7614 -6.73318 -4.53952 3.1477 -1.685 0.846201 3.85857 -2.28129 -1.74599 0.805502 -1.58501 0.795497 2.70805 -1.58471 -1.23798 -1.7069 20.075 5.0056 -43.5806 -1.20684 5.58144 -13.6458 -0.04701 -4.849 -9.49789 -41.9552 -7.42113 -28.3255 -0.975879 2.28881 7.44362 -33.1724 10.5008 -22.1583 -0.53 10.8316 11.1088 -20.0443 -6.43133 -0.785997 0.112005 2.5817 -19.2121 49.9311 17.782 -0.360105 -0.877995 4.2331 -0.51826 0.461419 -1.59089 -1.8127 -1.216 2.2227 -2.77349 2.81313 -9.0134 -0.9571 1.114 1.7695 -3.18055e-015 -9.54166e-015 3.18055e-015 -4.12461 0.48701 4.14511 -23.6185 3.40209 -15.5055 -3.4052 -1.454 2.76819 39.4979 10.0978 -9.27472 -1.4531 -1.795 1.2713 38.8029 9.98602 -9.06153 -5.69541 0.210001 2.11841 -1.04219 5.48645 -10.0637 -3.9766 -1.54 2.3863 52.309 13.5299 -14.1045 -1.4042 -1.926 1.12499 44.0035 12.3921 -11.1857 -2.0956 0.66 -0.3894 -3.18055e-015 -9.54166e-015 3.18055e-015 -5.03951 -0.0899867 2.4971 16.4926 0.275081 -5.65911 -3.7921 -1.552 1.4806 37.334 11.9096 -10.7862 -1.4655 -1.80801 0.960896 38.6322 12.1694 -11.2725 -4.9141 -1.26899 0.359198 24.6638 -0.263245 -2.07539 -3.14769 -1.68501 0.846196 30.529 11.315 -8.19443 -0.805499 -1.585 0.795495 30.4595 11.2958 -8.16996 8.367 -8.20659 0.5982 -24.2778 2.3592 -2.00956 2.19231 -43.4631 -0.493194 0.517555 -1.50625 0.989548 0.733298 -45.8593 -2.6451 10.3189 -0.0218677 -6.19275 -8.367 -8.20658 0.598199 -2.02227 -16.0516 45.6481 -2.19278 -43.463 -0.492553 13.3474 41.8653 -5.61711 -0.733302 -45.8593 -2.6451 -15.7751 3.3091 -23.1851 
-41.2056 100.215 -52.654 0.160882 5.70579 102.668 3.17885e-007 -1.18599 -1.5018 0.0516854 -1.93088 0.814743 1.00289e-006 9.964 0.213399 0.130944 -3.86084 1.63217 -2.80486e-007 13.134 -3.2573 0.13095 -3.86083 1.63222 -3.64483e-007 20.686 -1.6905 -0.715122 13.9451 -9.20696 9.27827e-007 7.23801 -0.123703 -5.60058 -1.01923 -9.31152 1.7069 20.075 5.0056 -0.035559 0.858634 8.03579 13.6458 -0.0470058 -4.849 -71.8898 -1.35382 34.3288 28.3255 -0.975894 2.2888 -2.23099 6.37544 -8.03276 22.1583 -0.53 10.8316 -26.2775 -32.8825 -1.03704 0.786005 0.111994 2.58171 -0.0242791 -0.00262399 -0.045242 0.360095 -0.877998 4.2331 -0.00027895 -0.000212522 1.48574e-005 1.8127 -1.21601 2.2227 -0.0152617 -0.00176339 -0.027656 0.9571 1.114 1.7695 -1.59028e-015 3.18055e-015 1.59028e-015 4.1246 0.486992 4.1451 0.0534442 -0.030187 -0.0535429 3.4052 -1.454 2.7682 0.0534137 -0.0234297 -0.0216756 1.45309 -1.79499 1.2713 0.0588853 -0.0261689 -0.0241142 5.6954 0.209986 2.1184 2.06321 -1.0353 -0.842112 3.9766 -1.53999 2.3863 2.06421 -1.03586 -0.842517 1.4042 -1.926 1.125 2.06844 -1.05282 -0.854067 2.0956 0.66 -0.3894 -1.59028e-015 3.18055e-015 1.59028e-015 5.0395 -0.090016 2.4971 1.8823 -3.877 -5.61399 3.7921 -1.55199 1.4806 4.4536 -2.47722 -2.04079 1.4655 -1.808 0.960902 4.4538 -2.4772 -2.04088 4.9141 -1.269 0.359097 10.7961 -6.71931 -4.49756 3.1477 -1.685 0.846199 3.89676 -2.30462 -1.76266 0.805501 -1.585 0.795497 2.75134 -1.6107 -1.25728 -1.7069 20.075 5.0056 -43.4194 -1.185 4.1854 -13.6458 -0.0470145 -4.849 -8.40853 -42.5408 -6.85071 -28.3255 -0.975889 2.2888 8.49256 -35.3814 12.1319 -22.1583 -0.530006 10.8316 10.6993 -17.5519 -7.21688 -0.785997 0.112005 2.5817 -19.2164 49.9277 17.788 -0.360108 -0.877995 4.2331 -0.517127 0.460397 -1.5874 -1.8127 -1.216 2.2227 -2.77433 2.81414 -9.01639 -0.9571 1.114 1.7695 -3.53113e-031 6.36111e-015 3.18055e-015 -4.12461 0.487009 4.14511 -23.61 3.40297 -15.5037 -3.4052 -1.454 2.76819 39.5006 10.0982 -9.27554 -1.4531 -1.79499 1.2713 38.8055 9.98645 -9.06234 -5.69541 0.210003 2.11841 -1.03861 5.48438 -10.0599 -3.9766 -1.54 2.3863 52.309 13.5299 -14.1045 -1.4042 -1.926 1.125 43.9894 12.3898 -11.1808 -2.0956 0.66 -0.3894 -3.53113e-031 6.36111e-015 3.18055e-015 -5.03951 -0.0899867 2.49711 16.4908 0.274546 -5.65879 -3.7921 -1.55201 1.4806 37.3287 11.9085 -10.7843 -1.4655 -1.80801 0.960895 38.627 12.1684 -11.2706 -4.91411 -1.26899 0.359207 24.6538 -0.265293 -2.07571 -3.1477 -1.68501 0.846204 30.5282 11.3147 -8.19413 -0.805498 -1.585 0.795498 30.4557 11.2948 -8.16862 8.367 -8.2066 0.598191 -23.3183 3.89395 -1.46454 2.1923 -43.463 -0.493196 0.478086 -1.70292 0.819396 0.733308 -45.8593 -2.6451 9.77161 0.257081 -6.7731 -8.367 -8.20659 0.598201 1.02615 -19.3584 45.5047 -2.19323 -43.463 -0.492114 19.4611 52.0081 -12.5248 -0.733317 -45.8594 -2.64509 -13.8691 3.25966 -19.3631 
-39.8911 100.517 -52.3543 0.871958 5.51718 103.309 -1.3948e-007 -1.18599 -1.5018 -0.0245653 -1.66612 0.546284 -5.49605e-007 9.964 0.213399 -0.033247 -3.3324 1.0926 -4.2314e-007 13.134 -3.2573 -0.0332494 -3.3324 1.09257 1.86919e-006 20.686 -1.69049 -0.901223 14.2402 -9.93007 -1.28162e-006 7.23801 -0.123701 -4.45584 -0.850051 -10.0369 1.7069 20.075 5.0056 -0.317292 0.871196 7.10504 13.6458 -0.0470186 -4.849 -69.311 -2.05855 34.8781 28.3255 -0.975904 2.2888 -2.3013 5.28343 -7.48742 22.1583 -0.530007 10.8316 -27.239 -32.4898 -0.187894 0.786004 0.111996 2.5817 -0.0959057 -0.0111577 -0.176318 0.360098 -0.878 4.2331 -0.000287535 -0.000235843 3.15216e-005 1.8127 -1.21602 2.2227 -0.0590181 -0.00694324 -0.107837 0.9571 1.114 1.7695 -0 0 3.18055e-015 4.1246 0.486989 4.1451 0.208401 -0.117354 -0.209082 3.4052 -1.454 2.7682 0.207002 -0.0917017 -0.0843473 1.45309 -1.79499 1.2713 0.229969 -0.102256 -0.0939432 5.6954 0.209985 2.1184 2.20511 -1.10785 -0.898872 3.9766 -1.54 2.3863 2.20603 -1.1084 -0.89929 1.4042 -1.926 1.125 2.20609 -1.10851 -0.899617 2.0956 0.66 -0.3894 -0 0 3.18055e-015 5.0395 -0.090012 2.4971 2.01887 -3.91942 -5.61809 3.7921 -1.552 1.4806 4.55887 -2.53822 -2.08716 1.4655 -1.808 0.960898 4.5591 -2.53822 -2.08723 4.91411 -1.269 0.359103 10.9033 -6.69172 -4.38591 3.1477 -1.68501 0.846202 4.00724 -2.37231 -1.8108 0.805501 -1.58501 0.795497 2.87678 -1.68599 -1.31307 -1.7069 20.075 5.0056 -43.0743 -1.16781 3.34361 -13.6458 -0.0470116 -4.849 -7.11191 -43.1423 -7.74687 -28.3255 -0.975891 2.2888 11.5007 -39.6907 17.0381 -22.1583 -0.530004 10.8316 9.29374 -12.7365 -9.39656 -0.785999 0.112005 2.5817 -19.2206 49.9242 17.7939 -0.360106 -0.877994 4.2331 -0.516042 0.459353 -1.58393 -1.8127 -1.216 2.2227 -2.77518 2.81515 -9.01939 -0.9571 1.114 1.7695 6.36111e-015 3.18055e-015 6.36111e-015 -4.12461 0.487011 4.14511 -23.6014 3.40387 -15.5019 -3.4052 -1.45401 2.7682 39.5033 10.0986 -9.27636 -1.4531 -1.795 1.27131 38.8082 9.98688 -9.06315 -5.69541 0.210002 2.11841 -1.035 5.4823 -10.0561 -3.9766 -1.54 2.38631 52.3089 13.5299 -14.1045 -1.4042 -1.926 1.125 43.9753 12.3875 -11.176 -2.0956 0.66 -0.3894 6.36111e-015 3.18055e-015 6.36111e-015 -5.03951 -0.0899883 2.49711 16.4891 0.274019 -5.65849 -3.7921 -1.55201 1.4806 37.3234 11.9074 -10.7823 -1.4655 -1.80801 0.960898 38.6217 12.1674 -11.2686 -4.91411 -1.26899 0.359204 24.6439 -0.267341 -2.07605 -3.1477 -1.68501 0.846204 30.5273 11.3145 -8.19387 -0.805503 -1.58499 0.795504 30.4519 11.2937 -8.16727 8.367 -8.2066 0.5982 -22.4819 5.51587 -0.469812 2.1923 -43.4631 -0.493196 0.427016 -1.66981 0.624616 0.733301 -45.8593 -2.64509 9.16627 0.343763 -7.51347 -8.367 -8.20659 0.598199 3.11794 -21.9708 44.9639 -2.28564 -43.4592 -0.397113 26.4343 59.5098 -19.6831 -0.7333 -45.8593 -2.64509 -11.4573 3.75864 -16.3018 
-38.1862 100.898 -51.7998 1.64984 5.1709 103.766 -4.92612e-007 -1.18599 -1.5018 -0.1079 -1.37994 0.239995 -1.68683e-006 9.96399 0.213401 -0.2101 -2.76032 0.477646 9.99709e-007 13.134 -3.2573 -0.210101 -2.76032 0.477633 4.54882e-006 20.6861 -1.69049 -1.15569 14.5521 -11.0021 -7.94282e-008 7.23801 -0.1237 -3.10662 -0.63886 -10.5911 1.7069 20.075 5.0056 -0.247073 0.884054 6.18366 13.6458 -0.0470068 -4.849 -66.1879 -3.32923 35.5344 28.3255 -0.975894 2.2888 -3.19843 2.57051 -6.72037 22.1583 -0.529998 10.8316 -26.0986 -29.5765 2.54419 0.786002 0.111997 2.5817 -0.21016 -0.0240365 -0.386238 0.360096 -0.878 4.2331 -0.000369641 -0.000287669 5.30377e-005 1.8127 -1.21601 2.2227 -0.129048 -0.0151445 -0.236262 0.9571 1.114 1.7695 1.59028e-015 -3.18055e-015 1.59028e-015 4.12461 0.486991 4.1451 0.45609 -0.257136 -0.457618 3.4052 -1.45401 2.7682 0.452648 -0.201324 -0.184286 1.4531 -1.795 1.2713 0.503673 -0.224443 -0.205165 5.69541 0.209985 2.1184 2.43193 -1.22425 -0.989318 3.9766 -1.53999 2.3863 2.43292 -1.22484 -0.98971 1.4042 -1.926 1.125 2.43295 -1.22493 -0.990059 2.0956 0.66 -0.3894 1.59028e-015 -3.18055e-015 1.59028e-015 5.0395 -0.0900147 2.4971 2.23745 -3.98756 -5.62431 3.7921 -1.55199 1.4806 4.72726 -2.63606 -2.16112 1.4655 -1.808 0.960898 4.72749 -2.63605 -2.16122 4.9141 -1.26901 0.359101 11.0748 -6.64724 -4.20724 3.1477 -1.685 0.8462 4.18404 -2.4808 -1.88752 0.805495 -1.58501 0.795498 3.0773 -1.80678 -1.40212 -1.7069 20.075 5.0056 -42.5801 -1.14278 2.19612 -13.6458 -0.0470132 -4.849 -5.07221 -43.7206 -8.2048 -28.3255 -0.97588 2.2888 14.9996 -43.8465 23.2875 -22.1583 -0.529997 10.8316 8.18168 -7.87923 -11.9171 -0.785999 0.112006 2.5817 -19.2248 49.9208 17.7999 -0.360104 -0.877996 4.2331 -0.514927 0.458313 -1.58044 -1.8127 -1.216 2.2227 -2.77602 2.81617 -9.02237 -0.9571 1.114 1.7695 -3.18055e-015 0 -0 -4.12461 0.487013 4.14511 -23.5929 3.40475 -15.5001 -3.4052 -1.45401 2.7682 39.5059 10.0991 -9.2772 -1.4531 -1.795 1.2713 38.8109 9.98732 -9.06396 -5.69541 0.210004 2.11841 -1.03139 5.48021 -10.0523 -3.9766 -1.54 2.3863 52.3089 13.53 -14.1045 -1.4042 -1.926 1.125 43.9612 12.3852 -11.1712 -2.0956 0.66 -0.3894 -3.18055e-015 0 -0 -5.03951 -0.0899866 2.4971 16.4874 0.273511 -5.65818 -3.79209 -1.55201 1.48059 37.318 11.9063 -10.7803 -1.4655 -1.80801 0.960895 38.6165 12.1663 -11.2666 -4.91411 -1.26899 0.359206 24.634 -0.269407 -2.07641 -3.14769 -1.68501 0.846192 30.5235 11.3135 -8.19251 -0.805497 -1.585 0.795496 30.4481 11.2927 -8.16592 8.367 -8.2066 0.598199 -21.2588 7.25797 -0.149846 2.19231 -43.4631 -0.493192 0.377167 -1.4843 0.432495 0.733302 -45.8593 -2.6451 8.56359 0.150475 -7.51712 -8.367 -8.20659 0.5982 5.00104 -24.641 44.0301 -2.19585 -43.4629 -0.489502 34.3019 64.7578 -27.702 -0.733291 -45.8593 -2.64511 -8.93905 4.63455 -13.8608 
